<?xml version="1.0" encoding="UTF-8" standalone="no"?>
<svg
   width="512"
   height="512"
   viewBox="0 0 24 24"
   version="1.1"
   id="svg1"
   sodipodi:docname="change-circle-outline-rounded-black.svg"
   inkscape:version="1.3 (0e150ed6c4, 2023-07-21)"
   xmlns:inkscape="http://www.inkscape.org/namespaces/inkscape"
   xmlns:sodipodi="http://sodipodi.sourceforge.net/DTD/sodipodi-0.dtd"
   xmlns="http://www.w3.org/2000/svg"
   xmlns:svg="http://www.w3.org/2000/svg">
  <defs
     id="defs1" />
  <sodipodi:namedview
     id="namedview1"
     pagecolor="#ffffff"
     bordercolor="#000000"
     borderopacity="0.25"
     inkscape:showpageshadow="2"
     inkscape:pageopacity="0.0"
     inkscape:pagecheckerboard="true"
     inkscape:deskcolor="#d1d1d1"
     inkscape:zoom="1.6035156"
     inkscape:cx="255.68819"
     inkscape:cy="256"
     inkscape:window-width="1920"
     inkscape:window-height="1017"
     inkscape:window-x="1592"
     inkscape:window-y="-8"
     inkscape:window-maximized="1"
     inkscape:current-layer="svg1" />
  <path
     fill="currentColor"
     d="M12.075 15.475q-.725.025-1.387-.237t-1.163-.763q-.5-.5-.763-1.125T8.5 12.025q0-.25.025-.488t.1-.462q.1-.3-.013-.6t-.387-.425q-.3-.125-.588 0t-.387.425q-.125.375-.188.75T7 12q0 1 .388 1.913t1.087 1.612q.675.7 1.588 1.075t1.887.4l-.425.425q-.225.225-.225.525t.225.525q.225.225.525.225t.525-.225l1.6-1.6q.3-.3.3-.7t-.3-.7l-1.6-1.6q-.225-.225-.525-.225t-.525.225q-.225.225-.225.525t.225.525l.55.55ZM11.9 8.5q.725 0 1.4.263t1.175.762q.5.5.763 1.125t.262 1.325q0 .25-.025.487t-.1.463q-.1.3.013.612t.387.438q.3.125.588 0t.387-.425q.125-.375.188-.763T17 12q0-1-.363-1.913T15.55 8.45q-.7-.7-1.613-1.062t-1.887-.363l.45-.45q.2-.225.2-.525t-.225-.525Q12.25 5.3 11.95 5.3t-.525.225l-1.6 1.6q-.3.3-.3.7t.3.7l1.6 1.6q.225.225.525.225t.525-.225Q12.7 9.9 12.7 9.6t-.225-.525L11.9 8.5ZM12 22q-2.075 0-3.9-.788t-3.175-2.137q-1.35-1.35-2.137-3.175T2 12q0-2.075.788-3.9t2.137-3.175q1.35-1.35 3.175-2.137T12 2q2.075 0 3.9.788t3.175 2.137q1.35 1.35 2.138 3.175T22 12q0 2.075-.788 3.9t-2.137 3.175q-1.35 1.35-3.175 2.138T12 22Zm0-2q3.35 0 5.675-2.325T20 12q0-3.35-2.325-5.675T12 4Q8.65 4 6.325 6.325T4 12q0 3.35 2.325 5.675T12 20Zm0-8Z"
     id="path1"
     style="fill:#ffffff;fill-opacity:1" />
</svg>
