<?xml version="1.0" encoding="UTF-8" standalone="no"?>
<!-- Uploaded to: SVG Repo, www.svgrepo.com, Generator: SVG Repo Mixer Tools -->

<svg
   fill="#000000"
   height="800px"
   width="800px"
   version="1.1"
   id="Layer_1"
   viewBox="0 0 512 512"
   xml:space="preserve"
   sodipodi:docname="door-white.svg"
   inkscape:version="1.3.2 (091e20e, 2023-11-25, custom)"
   xmlns:inkscape="http://www.inkscape.org/namespaces/inkscape"
   xmlns:sodipodi="http://sodipodi.sourceforge.net/DTD/sodipodi-0.dtd"
   xmlns="http://www.w3.org/2000/svg"
   xmlns:svg="http://www.w3.org/2000/svg"><defs
   id="defs4"><inkscape:path-effect
     effect="offset"
     id="path-effect4"
     is_visible="true"
     lpeversion="1.2"
     linejoin_type="miter"
     unit="mm"
     offset="-2.4"
     miter_limit="4"
     attempt_force_join="false"
     update_on_knot_move="true" /></defs><sodipodi:namedview
   id="namedview4"
   pagecolor="#ffffff"
   bordercolor="#000000"
   borderopacity="0.25"
   inkscape:showpageshadow="2"
   inkscape:pageopacity="0.0"
   inkscape:pagecheckerboard="0"
   inkscape:deskcolor="#d1d1d1"
   inkscape:zoom="0.80125"
   inkscape:cx="398.75195"
   inkscape:cy="497.34789"
   inkscape:window-width="1600"
   inkscape:window-height="837"
   inkscape:window-x="-8"
   inkscape:window-y="-8"
   inkscape:window-maximized="1"
   inkscape:current-layer="Layer_1" />
<g
   id="g2">
	<g
   id="g1">
		<path
   id="path1"
   style="display:inline;fill:#ffffff"
   d="m 342.47266,5.8886719 2.46484,0.3125 2.84375,0.84375 c 14.43147,5.5766391 10.41404,22.3383981 11.02344,39.7246091 l 0.19726,5.603516 5.60742,-0.002 c 18.92484,-0.0054 37.84849,-0.01022 56.77344,-0.01563 H 421.75 l 0.36328,-0.04492 c 13.58233,-1.727998 30.12573,2.446883 29.78125,17.373047 v 0.06836 356.968747 l 0.0117,0.1836 c 0.90226,14.25516 0.1232,29.70336 -13.5293,32.29297 -19.24644,1.01318 -38.62415,0.16914 -58.20898,0.45117 h -0.0449 l -0.0469,0.002 c -2.66327,0.0803 -26.69623,-4.04494 -21.22265,15.58203 1.58484,14.0069 -2.0588,31.01339 -17.11329,30.94531 C 257.3057,492.10781 173.06167,476.52868 88.648437,461.87109 l -0.232421,-0.0391 -0.234375,-0.0215 C 74.469555,460.5596 59.675416,456.10194 60.107422,442.36328 l 0.002,-0.0898 V 93.308594 l -0.002,0.197265 C 60.699359,76.065602 56.636167,59.101412 71.191406,53.603516 109.08667,46.062934 147.33688,40.034634 185.48633,33.054687 l 0.0742,-0.01367 C 237.97002,24.15174 290.09194,13.858986 342.47266,5.8886719 Z M 323.86523,44.095703 95.044922,84.5 v 343.02734 l 4.794922,0.84571 c 72.403926,12.77703 144.806956,25.55498 217.210936,38.33203 l 6.81445,1.20312 z m 93.0918,43.195313 -5.80664,0.002 c -15.51495,0.0045 -31.02996,0.0091 -46.54492,0.01367 l -5.80274,0.002 V 424.71289 h 58.1543 z"
   inkscape:path-effect="#path-effect4"
   inkscape:original-d="M 342.37375,0.02375 C 289.62238,8.0269081 237.15656,18.402646 184.51638,27.329663 146.20718,34.34011 107.68643,40.401355 69.511222,48.012999 50.115073,54.998567 54.849469,77.230765 54.30375,93.309287 c 0,116.290653 0,232.581313 0,348.871963 -0.581959,18.50746 18.47663,24.05388 33.3506,25.41082 84.57555,14.68577 169.02789,30.30711 253.68065,44.40668 20.37533,0.39916 25.15721,-21.41632 23.2725,-37.6113 -3.76874,-11.9612 7.69104,-8.69389 15.64369,-8.9337 19.61548,-0.28247 39.28882,0.58596 58.86526,-0.47282 18.63467,-3.25911 19.53244,-23.4317 18.5823,-38.44337 0,-118.90669 0,-237.81337 0,-356.72006 0.45586,-19.752013 -20.44879,-25.286384 -36.31741,-23.267515 -18.92495,0.0054 -37.84989,0.01084 -56.77484,0.01626 C 364.04763,30.621639 368.72816,8.792153 349.74887,1.5745004 L 346.1286,0.49974073 342.374,0.02375 Z m -24.3125,50.9925 c 0,136.65708 0,273.31417 0,409.97125 -72.40417,-12.77708 -144.80833,-25.55417 -217.2125,-38.33125 0,-111.09583 0,-222.19167 0,-333.2875 72.40417,-12.784167 144.80833,-25.568333 217.2125,-38.3525 z M 411.1525,93.0975 c 0,108.60375 0,217.2075 0,325.81125 -15.515,0 -31.03,0 -46.545,0 0,-108.59917 0,-217.19833 0,-325.7975 15.515,-0.0046 31.03,-0.0092 46.545,-0.01375 z" />
	</g>
</g>
<g
   id="g4">
	<g
   id="g3">
		<path
   d="M264.704,255.054c-4.329-4.329-10.333-6.811-16.462-6.811s-12.133,2.482-16.462,6.811    c-4.329,4.329-6.811,10.333-6.811,16.462s2.482,12.117,6.811,16.462c4.344,4.329,10.333,6.811,16.462,6.811    s12.133-2.482,16.462-6.811c4.329-4.344,6.811-10.333,6.811-16.462S269.033,259.383,264.704,255.054z"
   id="path2"
   style="fill:#ffffff" />
	</g>
</g>
</svg>
