<?xml version="1.0" encoding="UTF-8" standalone="no"?>
<svg
   width="128"
   height="128"
   viewBox="0 0 20 20"
   version="1.1"
   id="svg1"
   sodipodi:docname="moon.svg"
   inkscape:version="1.3.2 (091e20e, 2023-11-25, custom)"
   xmlns:inkscape="http://www.inkscape.org/namespaces/inkscape"
   xmlns:sodipodi="http://sodipodi.sourceforge.net/DTD/sodipodi-0.dtd"
   xmlns="http://www.w3.org/2000/svg"
   xmlns:svg="http://www.w3.org/2000/svg">
  <defs
     id="defs1">
    <inkscape:path-effect
       effect="offset"
       id="path-effect1"
       is_visible="true"
       lpeversion="1.2"
       linejoin_type="miter"
       unit="mm"
       offset="-0.4"
       miter_limit="4"
       attempt_force_join="false"
       update_on_knot_move="true" />
  </defs>
  <sodipodi:namedview
     id="namedview1"
     pagecolor="#ffffff"
     bordercolor="#000000"
     borderopacity="0.24705882"
     inkscape:showpageshadow="2"
     inkscape:pageopacity="0.0"
     inkscape:pagecheckerboard="true"
     inkscape:deskcolor="#d1d1d1"
     labelstyle="default"
     inkscape:clip-to-page="false"
     inkscape:zoom="5.0078125"
     inkscape:cx="64"
     inkscape:cy="64"
     inkscape:window-width="1600"
     inkscape:window-height="837"
     inkscape:window-x="-8"
     inkscape:window-y="-8"
     inkscape:window-maximized="1"
     inkscape:current-layer="svg1" />
  <path
     fill="#ffffff"
     fill-rule="evenodd"
     d="m 9.8027344,1.1953125 c 0.4136016,-0.00877 0.8291356,0.010861 1.2499996,0.0625 0.769705,0.094686 0.9248,1.1440393 0.214844,1.4570313 -1.4014628,0.6142227 -2.4183762,1.8688678 -2.7343749,3.3652343 -0.5474843,2.5618612 1.0843404,5.0774329 3.6464849,5.6249999 2.047918,0.433825 4.136097,-0.524639 5.140624,-2.361328 0.373646,-0.6831062 1.40914,-0.4349667 1.433594,0.34375 0.02176,0.708154 -0.04149,1.416169 -0.189453,2.109375 C 17.55679,16.537275 12.898948,19.568078 8.1660156,18.5625 3.4320365,17.555933 0.41029956,12.891791 1.4179687,8.1503906 2.2776141,4.1081159 5.8082948,1.2800176 9.8027344,1.1953125 Z M 8.4746094,2.8457031 7.7988281,3.0625 c -2.4810305,0.7947413 -4.344128,2.857882 -4.8847656,5.40625 -0.8322818,3.918445 1.659277,7.767259 5.5703125,8.597656 3.458564,0.735953 6.86697,-1.1373 8.183594,-4.294922 l 0.271484,-0.654296 -0.609375,0.359375 c -1.346257,0.791005 -2.941449,1.049511 -4.46875,0.724609 C 8.4782704,12.481598 6.3193357,9.149349 7.0390625,5.7617187 7.2170664,4.9208989 7.5667637,4.1240229 8.0644531,3.4238281 Z"
     clip-rule="evenodd"
     id="path1"
     inkscape:path-effect="#path-effect1"
     inkscape:original-d="M8.764 6.128a4.506 4.506 0 0 1 2.6-3.196c.93-.41.727-1.784-.281-1.908C6.47.458 2.162 3.522 1.188 8.102c-1.035 4.87 2.067 9.656 6.93 10.69c4.862 1.033 9.642-2.078 10.677-6.947a9.045 9.045 0 0 0 .195-2.166c-.032-1.019-1.388-1.343-1.877-.449a4.504 4.504 0 0 1-4.885 2.245a4.505 4.505 0 0 1-3.464-5.347Zm-.23 10.707c-3.782-.803-6.195-4.527-5.39-8.317a7.022 7.022 0 0 1 4.727-5.23a6.512 6.512 0 0 0-1.063 2.424c-.747 3.516 1.493 6.973 5.005 7.72a6.487 6.487 0 0 0 4.636-.752c-1.273 3.053-4.57 4.867-7.916 4.155Z" />
</svg>
