<?xml version="1.0" encoding="UTF-8" standalone="no"?>
<svg
   width="undefined"
   height="undefined"
   viewBox="0 0 32 32"
   version="1.1"
   id="svg1"
   sodipodi:docname="save-white.svg"
   inkscape:version="1.3.2 (091e20e, 2023-11-25, custom)"
   xmlns:inkscape="http://www.inkscape.org/namespaces/inkscape"
   xmlns:sodipodi="http://sodipodi.sourceforge.net/DTD/sodipodi-0.dtd"
   xmlns="http://www.w3.org/2000/svg"
   xmlns:svg="http://www.w3.org/2000/svg">
  <defs
     id="defs1" />
  <sodipodi:namedview
     id="namedview1"
     pagecolor="#ffffff"
     bordercolor="#000000"
     borderopacity="0.25"
     inkscape:showpageshadow="2"
     inkscape:pageopacity="0.0"
     inkscape:pagecheckerboard="0"
     inkscape:deskcolor="#d1d1d1"
     inkscape:zoom="20.03125"
     inkscape:cx="16"
     inkscape:cy="16"
     inkscape:window-width="1600"
     inkscape:window-height="837"
     inkscape:window-x="-8"
     inkscape:window-y="-8"
     inkscape:window-maximized="1"
     inkscape:current-layer="svg1" />
  <path
     fill="currentColor"
     d="m27.71 9.29l-5-5A1 1 0 0 0 22 4H6a2 2 0 0 0-2 2v20a2 2 0 0 0 2 2h20a2 2 0 0 0 2-2V10a1 1 0 0 0-.29-.71ZM12 6h8v4h-8Zm8 20h-8v-8h8Zm2 0v-8a2 2 0 0 0-2-2h-8a2 2 0 0 0-2 2v8H6V6h4v4a2 2 0 0 0 2 2h8a2 2 0 0 0 2-2V6.41l4 4V26Z"
     id="path1"
     style="fill:#ffffff;fill-opacity:1" />
</svg>
