<?xml version="1.0" encoding="UTF-8" standalone="no"?>
<svg
   width="undefined"
   height="undefined"
   viewBox="0 0 16 16"
   version="1.1"
   id="svg1"
   sodipodi:docname="sun.svg"
   inkscape:version="1.3.2 (091e20e, 2023-11-25, custom)"
   xmlns:inkscape="http://www.inkscape.org/namespaces/inkscape"
   xmlns:sodipodi="http://sodipodi.sourceforge.net/DTD/sodipodi-0.dtd"
   xmlns="http://www.w3.org/2000/svg"
   xmlns:svg="http://www.w3.org/2000/svg">
  <defs
     id="defs1" />
  <sodipodi:namedview
     id="namedview1"
     pagecolor="#ffffff"
     bordercolor="#000000"
     borderopacity="0.25"
     inkscape:showpageshadow="2"
     inkscape:pageopacity="0.0"
     inkscape:pagecheckerboard="0"
     inkscape:deskcolor="#d1d1d1"
     inkscape:zoom="40.0625"
     inkscape:cx="7.9875195"
     inkscape:cy="8"
     inkscape:window-width="1600"
     inkscape:window-height="837"
     inkscape:window-x="-8"
     inkscape:window-y="-8"
     inkscape:window-maximized="1"
     inkscape:current-layer="svg1" />
  <path
     fill="currentColor"
     d="m 7.9999498,10.962803 a 2.9627529,2.9627535 0 1 1 0,-5.9255059 2.9627529,2.9627535 0 0 1 0,5.9255059 z m 0,0.987584 a 3.9503369,3.9503376 0 1 0 0,-7.9006742 3.9503369,3.9503376 0 0 0 0,7.9006742 z m 0,-11.85101187 A 0.49379211,0.49379219 0 0 1 8.4937419,0.59316734 V 2.5683362 a 0.49379215,0.49379223 0 0 1 -0.9875843,0 V 0.59316734 A 0.49379211,0.49379219 0 0 1 7.9999498,0.09937513 Z m 0,12.83859687 a 0.49379211,0.49379219 0 0 1 0.4937921,0.493792 v 1.975169 a 0.49379215,0.49379223 0 0 1 -0.9875843,0 V 13.431764 A 0.49379211,0.49379219 0 0 1 7.9999498,12.937972 Z M 15.900625,8.0000504 a 0.49379211,0.49379219 0 0 1 -0.493793,0.4937922 h -1.975168 a 0.49379215,0.49379223 0 0 1 0,-0.9875844 h 1.975168 a 0.49379211,0.49379219 0 0 1 0.493793,0.4937922 z m -12.8385967,0 A 0.49379211,0.49379219 0 0 1 2.5682363,8.4938426 H 0.59306785 a 0.49379215,0.49379223 0 0 1 0,-0.9875844 H 2.5682363 a 0.49379211,0.49379219 0 0 1 0.493792,0.4937922 z M 13.586713,2.4132854 a 0.49379211,0.49379219 0 0 1 0,0.6982221 l -1.396442,1.3974321 a 0.49406716,0.49406726 0 1 1 -0.698222,-0.69921 l 1.396444,-1.3964442 a 0.49379211,0.49379219 0 0 1 0.69822,0 z M 4.5078517,11.492148 a 0.49379211,0.49379219 0 0 1 0,0.698223 L 3.1114078,13.586815 A 0.49379211,0.49379219 0 0 1 2.4131855,12.888593 l 1.3964442,-1.396445 a 0.49379211,0.49379219 0 0 1 0.698222,0 z m 9.0788613,2.094667 a 0.49379211,0.49379219 0 0 1 -0.69822,0 l -1.396444,-1.396444 a 0.49379211,0.49379219 0 0 1 0.698222,-0.698223 l 1.396442,1.396445 a 0.49379211,0.49379219 0 0 1 0,0.698222 z M 4.5078517,4.5089396 a 0.49379211,0.49379219 0 0 1 -0.698222,0 L 2.4131855,3.1115075 A 0.49379211,0.49379219 0 1 1 3.1114078,2.4132854 l 1.3964439,1.3964442 a 0.49379211,0.49379219 0 0 1 0,0.69921 z"
     id="path1"
     style="opacity:1;stroke:#000000;stroke-width:0.19875;stroke-dasharray:none;stroke-opacity:1;paint-order:normal"
     inkscape:label="path1" />
</svg>
